<svg width="180" height="23" viewBox="0 0 180 23" fill="none" xmlns="http://www.w3.org/2000/svg">
<path d="M41.9502 8.19229H26.7298L26.1659 8.61401V22.154H30.3793V17.0766L30.7814 16.7162H41.9507C44.7709 16.7162 46.093 15.9574 46.093 14.0106V10.9017C46.0925 8.9516 44.7709 8.19229 41.9502 8.19229ZM41.9502 13.1981C41.9502 14.1153 41.3434 14.3058 40.0212 14.3058H30.8276L30.3787 13.8695V10.969L30.7809 10.601H40.0212C41.3434 10.601 41.9502 10.7894 41.9502 11.7109V13.1981Z" fill="white"/>
<path d="M53.7762 10.7535L57.4018 16.0654L57.2009 16.5799H49.1829L47.1362 19.0978H59.0713L59.8984 19.6014L61.7514 22.1573H66.5732L56.0042 8.01913" fill="white"/>
<path d="M101.721 19.4071V15.6491L102.155 15.2746H110.221V12.8817H97.4367V22.1567H116.295V19.7751H102.174" fill="white"/>
<path d="M116.494 8.19229H97.4367V10.8235H116.494V8.19229Z" fill="white"/>
<path d="M76.181 10.6841H91.5343C91.2977 8.73179 90.0863 8.19012 87.0132 8.19012H76.0176C72.55 8.19012 71.4438 8.86694 71.4438 11.4911V18.8536C71.4438 21.4805 72.55 22.1573 76.0176 22.1573H87.0132C90.1313 22.1573 91.3254 21.5717 91.4068 19.5466H76.181L75.7294 19.1217V10.9685" fill="white"/>
<path d="M15.9204 13.6328H4.75111L4.4222 13.2708V10.8816L4.74948 10.6287H19.8065L20.0122 10.1256C19.4993 8.80612 18.1712 8.19064 15.7049 8.19064H5.24556C1.78009 8.19064 0.672337 8.86745 0.672337 11.4917V13.0352C0.672337 15.6627 1.78009 16.3384 5.24556 16.3384H16.3899L16.7399 16.6456V19.1434L16.4545 19.5331H3.70686V19.5211H0.367853C0.367853 19.5211 -0.0142433 19.7127 0.000410994 19.8023C0.285355 21.6378 1.53585 22.1578 4.52967 22.1578H15.9204C19.3853 22.1578 20.5262 21.481 20.5262 18.8541V16.9311C20.5262 14.3085 19.3853 13.6328 15.9204 13.6328Z" fill="white"/>
<path d="M128.483 8.13474H122.213L121.873 8.78224L128.835 13.8575C130.154 13.0939 131.589 12.3199 133.15 11.5562" fill="white"/>
<path d="M134.1 17.6953L140.22 22.1578H146.565L146.828 21.5668L137.69 14.8784C136.477 15.7691 135.278 16.7097 134.1 17.6953Z" fill="white"/>
<path d="M127.55 22.1475H121.877L121.398 21.3969C125.255 17.6731 142.505 1.71021 180 0C180 0 148.528 1.06162 127.55 22.1475Z" fill="white"/>
</svg>
